# Blender v2.92.0 OBJ File: 'wing.blend'
# www.blender.org
mtllib wing.mtl
o Plane.001_Plane
v 1.000000 0.000000 -0.414472
v 1.349058 0.000000 -0.369168
v 1.294366 0.000000 -0.373725
v 1.198656 0.000000 -0.387398
v 1.089273 0.000000 -0.401071
v 1.421980 0.000000 -0.360053
v 1.499459 0.000000 -0.341822
v 1.567824 0.000000 -0.328149
v 1.654419 0.000000 -0.314476
v 1.731899 0.000000 -0.296246
v 1.827608 0.000000 -0.287131
v 1.909646 0.000000 -0.273458
v 1.996241 0.000000 -0.259785
v 2.078278 0.000000 -0.246112
v 2.151200 0.000000 -0.232439
v 2.219565 0.000000 -0.218766
v 2.297044 0.000000 -0.195978
v 2.365409 0.000000 -0.186863
v 2.415543 0.000000 -0.164075
v 2.506695 0.000000 -0.141286
v 2.579617 0.000000 -0.118498
v 2.643424 0.000000 -0.095710
v 2.666212 0.000000 -0.077480
v 2.689000 0.000000 -0.050134
v 2.702673 0.000000 -0.013673
v 2.711789 0.000000 0.013673
v 2.689000 0.000000 0.045576
v 2.647982 0.000000 0.059249
v 2.579617 0.000000 0.063807
v 2.497580 0.000000 0.063807
v 2.415543 0.000000 0.063807
v 2.319832 0.000000 0.059249
v 2.210449 0.000000 0.059249
v 2.110181 0.000000 0.068364
v 2.014472 0.000000 0.050134
v 1.941549 0.000000 0.041019
v 1.854954 0.000000 0.036461
v 1.768359 0.000000 0.031903
v 1.677207 0.000000 0.022788
v 1.558709 0.000000 0.013673
v 1.481229 0.000000 0.009115
v 1.399191 0.000000 0.013673
v 1.312597 0.000000 0.004558
v 1.235117 0.000000 -0.004558
v 1.139407 0.000000 -0.018230
v 1.061927 0.000000 -0.027346
v 0.970775 0.000000 -0.022788
v 0.888737 0.000000 -0.031903
v 0.811258 0.000000 -0.031903
v 0.729220 0.000000 -0.036461
v 0.642625 0.000000 -0.036461
v 0.565146 0.000000 -0.041019
v 0.473993 0.000000 -0.045576
v 0.396514 0.000000 -0.050134
v 0.314476 0.000000 -0.054692
v 0.246112 0.000000 -0.054692
v 0.173190 0.000000 -0.059249
v 0.086595 0.000000 -0.059249
v -0.004558 0.000000 -0.054692
v -0.091153 0.000000 -0.059249
v -0.168632 0.000000 -0.063807
v -0.278015 0.000000 -0.063807
v -0.373726 0.000000 -0.077480
v -0.478551 0.000000 -0.086595
v -0.556031 0.000000 -0.077480
v -0.624395 0.000000 -0.072922
v -0.720105 0.000000 -0.068364
v -0.783912 0.000000 -0.068364
v -0.861392 0.000000 -0.077480
v -0.947986 0.000000 -0.072922
v -1.016351 0.000000 -0.082037
v -1.130292 0.000000 -0.086595
v -1.230559 0.000000 -0.077480
v -1.321712 0.000000 -0.082037
v -1.435653 0.000000 -0.063807
v -1.522248 0.000000 -0.059249
v -1.640746 0.000000 -0.054692
v -1.754687 0.000000 -0.036461
v -1.859512 0.000000 -0.031903
v -1.955222 0.000000 -0.009115
v -2.064605 0.000000 0.022788
v -2.164873 0.000000 0.031903
v -2.260583 0.000000 0.059249
v -2.374524 0.000000 0.072922
v -2.452003 0.000000 0.091153
v -2.552271 0.000000 0.109383
v -2.652539 0.000000 0.127614
v -2.748249 0.000000 0.127614
v -2.834844 0.000000 0.113941
v -2.862190 0.000000 0.082037
v -2.880421 0.000000 0.036461
v -2.889536 0.000000 -0.013673
v -2.880421 0.000000 -0.050134
v -2.862190 0.000000 -0.104826
v -2.825729 0.000000 -0.145844
v -2.784711 0.000000 -0.182305
v -2.743692 0.000000 -0.214209
v -2.693558 0.000000 -0.246112
v -2.647982 0.000000 -0.273458
v -2.575060 0.000000 -0.309919
v -2.520368 0.000000 -0.337265
v -2.452003 0.000000 -0.360053
v -2.392754 0.000000 -0.382841
v -2.333505 0.000000 -0.405629
v -2.256026 0.000000 -0.428417
v -2.187661 0.000000 -0.442090
v -2.119297 0.000000 -0.460321
v -2.055490 0.000000 -0.469436
v -1.978010 0.000000 -0.487666
v -1.891415 0.000000 -0.496781
v -1.823051 0.000000 -0.501339
v -1.736456 0.000000 -0.510454
v -1.645303 0.000000 -0.524127
v -1.531363 0.000000 -0.528685
v -1.444768 0.000000 -0.528685
v -1.353615 0.000000 -0.537800
v -1.276136 0.000000 -0.542358
v -1.171310 0.000000 -0.546915
v -1.048254 0.000000 -0.546915
v -0.952544 0.000000 -0.551473
v -0.865949 0.000000 -0.546915
v -0.761124 0.000000 -0.546915
v -0.688202 0.000000 -0.556031
v -0.587934 0.000000 -0.546915
v -0.483109 0.000000 -0.556031
v -0.369168 0.000000 -0.546915
v -0.250669 0.000000 -0.537800
v -0.154959 0.000000 -0.528685
v -0.031903 0.000000 -0.524127
v 0.072922 0.000000 -0.522665
v 0.168632 0.000000 -0.510518
v 0.259785 0.000000 -0.492224
v 0.382841 0.000000 -0.487666
v 0.492224 0.000000 -0.473993
v 0.578819 0.000000 -0.464878
v 0.692760 0.000000 -0.455742
v 0.799111 0.000000 -0.440521
v 0.910042 0.000000 -0.428396
vt 0.000000 0.000000
vt 0.000000 0.000000
vt 0.000000 0.000000
vt 0.000000 0.000000
vt 0.000000 0.000000
vt 0.000000 0.000000
vt 0.000000 0.000000
vt 0.000000 0.000000
vt 0.000000 0.000000
vt 0.000000 0.000000
vt 0.000000 0.000000
vt 0.000000 0.000000
vt 0.000000 0.000000
vt 0.000000 0.000000
vt 0.000000 0.000000
vt 0.000000 0.000000
vt 0.000000 0.000000
vt 0.000000 0.000000
vt 0.000000 0.000000
vt 0.000000 0.000000
vt 0.000000 0.000000
vt 0.000000 0.000000
vt 0.000000 0.000000
vt 0.000000 0.000000
vt 0.000000 0.000000
vt 0.000000 0.000000
vt 0.000000 0.000000
vt 0.000000 0.000000
vt 0.000000 0.000000
vt 0.000000 0.000000
vt 0.000000 0.000000
vt 0.000000 0.000000
vt 0.000000 0.000000
vt 0.000000 0.000000
vt 0.000000 0.000000
vt 0.000000 0.000000
vt 0.000000 0.000000
vt 0.000000 0.000000
vt 0.000000 0.000000
vt 0.000000 0.000000
vt 0.000000 0.000000
vt 0.000000 0.000000
vt 0.000000 0.000000
vt 0.000000 0.000000
vt 0.000000 0.000000
vt 0.000000 0.000000
vt 0.000000 0.000000
vt 0.000000 0.000000
vt 0.000000 0.000000
vt 0.000000 0.000000
vt 0.000000 0.000000
vt 0.000000 0.000000
vt 0.000000 0.000000
vt 0.000000 0.000000
vt 0.000000 0.000000
vt 0.000000 0.000000
vt 0.000000 0.000000
vt 0.000000 0.000000
vt 0.000000 0.000000
vt 0.000000 0.000000
vt 0.000000 0.000000
vt 0.000000 0.000000
vt 0.000000 0.000000
vt 0.000000 0.000000
vt 0.000000 0.000000
vt 0.000000 0.000000
vt 0.000000 0.000000
vt 0.000000 0.000000
vt 0.000000 0.000000
vt 0.000000 0.000000
vt 0.000000 0.000000
vt 0.000000 0.000000
vt 0.000000 0.000000
vt 0.000000 0.000000
vt 0.000000 0.000000
vt 0.000000 0.000000
vt 0.000000 0.000000
vt 0.000000 0.000000
vt 0.000000 0.000000
vt 0.000000 0.000000
vt 0.000000 0.000000
vt 0.000000 0.000000
vt 0.000000 0.000000
vt 0.000000 0.000000
vt 0.000000 0.000000
vt 0.000000 0.000000
vt 0.000000 0.000000
vt 0.000000 0.000000
vt 0.000000 0.000000
vt 0.000000 0.000000
vt 0.000000 0.000000
vt 0.000000 0.000000
vt 0.000000 0.000000
vt 0.000000 0.000000
vt 0.000000 0.000000
vt 0.000000 0.000000
vt 0.000000 0.000000
vt 0.000000 0.000000
vt 0.000000 0.000000
vt 0.000000 0.000000
vt 0.000000 0.000000
vt 0.000000 0.000000
vt 0.000000 0.000000
vt 0.000000 0.000000
vt 0.000000 0.000000
vt 0.000000 0.000000
vt 0.000000 0.000000
vt 0.000000 0.000000
vt 0.000000 0.000000
vt 0.000000 0.000000
vt 0.000000 0.000000
vt 0.000000 0.000000
vt 0.000000 0.000000
vt 0.000000 0.000000
vt 0.000000 0.000000
vt 0.000000 0.000000
vt 0.000000 0.000000
vt 0.000000 0.000000
vt 0.000000 0.000000
vt 0.000000 0.000000
vt 0.000000 0.000000
vt 0.000000 0.000000
vt 0.000000 0.000000
vt 0.000000 0.000000
vt 0.000000 0.000000
vt 0.000000 0.000000
vt 0.000000 0.000000
vt 0.000000 0.000000
vt 0.000000 0.000000
vt 0.000000 0.000000
vt 0.000000 0.000000
vt 0.000000 0.000000
vt 0.000000 0.000000
vt 0.000000 0.000000
vt 0.000000 0.000000
vt 0.000000 0.000000
vt 0.000000 0.000000
vt 0.000000 0.000000
vn 0.0000 1.0000 0.0000
usemtl None
s off
f 3/1/1 4/2/1 5/3/1 1/4/1 138/5/1 137/6/1 136/7/1 135/8/1 134/9/1 133/10/1 132/11/1 131/12/1 130/13/1 129/14/1 128/15/1 127/16/1 126/17/1 125/18/1 124/19/1 123/20/1 122/21/1 121/22/1 120/23/1 119/24/1 118/25/1 117/26/1 116/27/1 115/28/1 114/29/1 113/30/1 112/31/1 111/32/1 110/33/1 109/34/1 108/35/1 107/36/1 106/37/1 105/38/1 104/39/1 103/40/1 102/41/1 101/42/1 100/43/1 99/44/1 98/45/1 97/46/1 96/47/1 95/48/1 94/49/1 93/50/1 92/51/1 91/52/1 90/53/1 89/54/1 88/55/1 87/56/1 86/57/1 85/58/1 84/59/1 83/60/1 82/61/1 81/62/1 80/63/1 79/64/1 78/65/1 77/66/1 76/67/1 75/68/1 74/69/1 73/70/1 72/71/1 71/72/1 70/73/1 69/74/1 68/75/1 67/76/1 66/77/1 65/78/1 64/79/1 63/80/1 62/81/1 61/82/1 60/83/1 59/84/1 58/85/1 57/86/1 56/87/1 55/88/1 54/89/1 53/90/1 52/91/1 51/92/1 50/93/1 49/94/1 48/95/1 47/96/1 46/97/1 45/98/1 44/99/1 43/100/1 42/101/1 41/102/1 40/103/1 39/104/1 38/105/1 37/106/1 36/107/1 35/108/1 34/109/1 33/110/1 32/111/1 31/112/1 30/113/1 29/114/1 28/115/1 27/116/1 26/117/1 25/118/1 24/119/1 23/120/1 22/121/1 21/122/1 20/123/1 19/124/1 18/125/1 17/126/1 16/127/1 15/128/1 14/129/1 13/130/1 12/131/1 11/132/1 10/133/1 9/134/1 8/135/1 7/136/1 6/137/1 2/138/1
